<?xml version="1.0" encoding="UTF-8" standalone="no"?>
<!-- Created with Inkscape (http://www.inkscape.org/) -->

<svg
   width="170mm"
   height="70mm"
   viewBox="0 0 170 70"
   version="1.1"
   id="svg5"
   xml:space="preserve"
   inkscape:version="1.2.2 (b0a8486541, 2022-12-01)"
   sodipodi:docname="meetmind-logo-3.svg"
   xmlns:inkscape="http://www.inkscape.org/namespaces/inkscape"
   xmlns:sodipodi="http://sodipodi.sourceforge.net/DTD/sodipodi-0.dtd"
   xmlns="http://www.w3.org/2000/svg"
   xmlns:svg="http://www.w3.org/2000/svg"><sodipodi:namedview
     id="namedview7"
     pagecolor="#ffffff"
     bordercolor="#000000"
     borderopacity="0.25"
     inkscape:showpageshadow="2"
     inkscape:pageopacity="0.0"
     inkscape:pagecheckerboard="0"
     inkscape:deskcolor="#d1d1d1"
     inkscape:document-units="mm"
     showgrid="false"
     inkscape:zoom="1.2380415"
     inkscape:cx="993.10076"
     inkscape:cy="52.90614"
     inkscape:window-width="3440"
     inkscape:window-height="1440"
     inkscape:window-x="0"
     inkscape:window-y="0"
     inkscape:window-maximized="1"
     inkscape:current-layer="layer1" /><defs
     id="defs2" /><g
     inkscape:label="Layer 1"
     inkscape:groupmode="layer"
     id="layer1"><path
       style="fill:#ffffff;stroke-width:0.0679023"
       d="m 42.608196,62.896569 c -0.88653,-0.0488 -1.80403,-0.17829 -1.97966,-0.2793 -0.0568,-0.0327 -0.30781,-0.11161 -0.55774,-0.17539 -0.24992,-0.0638 -0.48497,-0.14357 -0.52234,-0.17731 -0.0374,-0.0337 -0.21367,-0.11498 -0.3918,-0.18052 -0.17813,-0.0655 -0.33852,-0.1402 -0.35642,-0.16591 -0.0179,-0.0257 -0.16436,-0.10873 -0.32547,-0.18449 -0.1611,-0.0758 -0.30756,-0.1581 -0.32546,-0.18296 -0.0179,-0.0249 -0.13507,-0.10225 -0.26038,-0.172 -0.7062,-0.39306 -1.70911,-1.37943 -2.32964,-2.29121 -0.40183,-0.59042 -0.99605,-1.85281 -1.12167,-2.38294 -0.0462,-0.19479 -0.10842,-0.38897 -0.13836,-0.43151 -0.0661,-0.0939 -0.29649,-1.46145 -0.3893,-2.31036 -0.14669,-1.34177 0.24546,-3.71204 0.84131,-5.08512 0.39368,-0.90719 1.2663,-2.22846 1.91943,-2.90627 1.13551,-1.17842 2.88673,-2.05098 4.83092,-2.40706 0.42146,-0.0772 2.17399,-0.0756 2.63628,0.002 0.71017,0.11982 1.66024,0.35349 1.86306,0.45822 0.11388,0.0588 0.22959,0.10692 0.25712,0.10692 0.10942,0 1.00264,0.47258 1.52505,0.80686 0.60769,0.38886 1.8138,1.62978 2.21054,2.27435 0.35369,0.5746 0.83063,1.60956 0.94942,2.06021 0.0607,0.23041 0.13587,0.45367 0.16698,0.49614 0.0596,0.0814 0.29738,1.44399 0.38822,2.22485 0.0295,0.25322 0.0551,0.90975 0.0569,1.45894 l 0.003,0.99853 -3.95442,0.008 c -2.17493,0.004 -5.29453,0.0299 -6.93245,0.0564 -2.84184,0.0461 -2.97802,0.0543 -2.97802,0.17978 0,0.0723 0.0238,0.13149 0.0528,0.13149 0.029,0 0.0886,0.1514 0.13231,0.33645 0.32534,1.37642 1.54884,2.892 2.90684,3.60078 0.94572,0.4936 2.41442,0.80531 3.31731,0.70405 0.72028,-0.0808 1.36867,-0.19215 1.43451,-0.24641 0.0358,-0.0295 0.19985,-0.0894 0.36456,-0.13305 0.56598,-0.15009 1.30492,-0.58436 2.09096,-1.22883 0.2765,-0.22671 0.51894,-0.41219 0.53875,-0.41219 0.16492,0 2.05046,2.11028 2.05046,2.29486 0,0.0841 -0.65016,0.77603 -0.98787,1.05133 -0.64504,0.52584 -1.53875,1.09176 -2.04729,1.29637 -0.17443,0.0702 -0.34644,0.15115 -0.38224,0.17991 -0.0358,0.0288 -0.25481,0.10571 -0.48668,0.17099 -0.23187,0.0653 -0.47023,0.14701 -0.52969,0.18164 -0.13485,0.0785 -1.47684,0.26029 -2.17321,0.29434 -0.28641,0.014 -0.90154,0.004 -1.36696,-0.0212 z m 5.30511,-11.21542 c 0,-0.13356 -0.22951,-0.98701 -0.32992,-1.22681 -0.0692,-0.16515 -0.12573,-0.32829 -0.12573,-0.36253 0,-0.0343 -0.10952,-0.27669 -0.24338,-0.53875 -1.10421,-2.16182 -3.12339,-3.10818 -5.64757,-2.64693 -0.21481,0.0393 -0.41985,0.0963 -0.45565,0.12675 -0.0358,0.0305 -0.18227,0.0961 -0.32547,0.1459 -0.59984,0.20852 -1.43137,0.85171 -1.93153,1.49407 -0.38798,0.49828 -0.80868,1.31793 -0.93517,1.82199 -0.0554,0.22079 -0.12513,0.45047 -0.15494,0.51041 -0.0298,0.0599 -0.0751,0.24321 -0.10052,0.40728 l -0.0463,0.29832 h 5.1481 c 2.83145,0 5.1481,-0.0134 5.1481,-0.0297 z m 13.37689,11.11462 c -0.3579,-0.0554 -0.7094,-0.13282 -0.78112,-0.17213 -0.0717,-0.0393 -0.33074,-0.12036 -0.57564,-0.18015 -0.24489,-0.0598 -0.50771,-0.1563 -0.58405,-0.21448 -0.0763,-0.0582 -0.17565,-0.10579 -0.2207,-0.10579 -0.083,0 -1.05025,-0.49213 -1.28756,-0.65508 -0.9305,-0.63895 -1.53847,-1.19371 -2.05857,-1.87841 -0.48711,-0.64126 -0.64623,-0.88236 -0.80561,-1.22063 -0.0643,-0.13635 -0.13469,-0.26385 -0.15654,-0.28333 -0.0642,-0.0572 -0.52794,-1.11215 -0.52794,-1.20092 0,-0.0446 -0.0469,-0.17972 -0.10415,-0.30026 -0.24718,-0.52014 -0.53811,-2.44646 -0.53817,-3.56334 -6e-5,-1.06143 0.26202,-2.72148 0.53674,-3.39996 0.0473,-0.11688 0.126,-0.32406 0.17482,-0.46041 0.153,-0.42729 0.65399,-1.35935 1.02798,-1.91248 0.46605,-0.68931 1.15612,-1.43729 1.76075,-1.90854 0.54044,-0.42123 1.59565,-1.02743 1.99149,-1.1441 0.1432,-0.0422 0.34824,-0.12052 0.45565,-0.17405 0.22078,-0.11001 1.25029,-0.37405 1.79007,-0.45908 0.46042,-0.0725 2.00955,-0.0729 2.47355,-7.1e-4 0.64991,0.10128 1.6758,0.35626 1.86469,0.46346 0.10216,0.058 0.22516,0.10562 0.27331,0.10585 0.0911,7.1e-4 1.05959,0.49908 1.11667,0.57493 0.0179,0.0238 0.13506,0.1 0.26037,0.16933 0.1253,0.0694 0.3157,0.20265 0.42311,0.29622 0.1074,0.0936 0.26527,0.22455 0.35082,0.29107 0.19785,0.15385 1.30479,1.35659 1.45493,1.58085 0.34273,0.5119 0.49431,0.77442 0.64981,1.12549 0.6733,1.51997 0.8587,2.47127 0.93184,4.7812 l 0.0471,1.48748 -3.01911,0.0183 c -4.91945,0.0299 -10.71893,0.12004 -10.76229,0.1673 -0.0222,0.0242 -0.006,0.13574 0.0363,0.24791 0.0422,0.11216 0.11324,0.29956 0.15793,0.41644 0.0447,0.11687 0.10289,0.29218 0.12934,0.38958 0.19213,0.70737 1.41646,2.33669 2.00454,2.66761 0.11066,0.0623 0.24135,0.1569 0.2904,0.21029 0.0491,0.0534 0.11632,0.0971 0.14948,0.0971 0.0332,0 0.24342,0.0934 0.46727,0.20748 0.22386,0.11411 0.52418,0.22983 0.66738,0.25715 0.14321,0.0273 0.28967,0.0746 0.32547,0.10511 0.11362,0.0968 1.0595,0.20947 1.74596,0.20802 0.69768,-0.001 1.48499,-0.0963 1.70399,-0.20532 0.0716,-0.0356 0.27499,-0.10132 0.45196,-0.14599 0.17698,-0.0447 0.44784,-0.14371 0.60191,-0.22008 0.15407,-0.0764 0.35402,-0.16944 0.44433,-0.20681 0.25959,-0.10739 1.08343,-0.73882 1.32986,-1.01926 0.20443,-0.23265 0.45916,-0.34159 0.45916,-0.19638 0,0.0324 0.32953,0.45692 0.7323,0.94339 0.94569,1.14222 0.93708,1.13077 0.98891,1.31593 0.10142,0.36231 -1.11452,1.45233 -2.33978,2.09745 -0.42952,0.22614 -0.83119,0.44033 -0.89261,0.47596 -0.16479,0.0956 -0.99372,0.3522 -1.51567,0.46916 -0.67129,0.15043 -3.26498,0.18682 -4.10069,0.0575 z m 6.38564,-11.19775 c -0.0219,-0.0621 -0.0588,-0.1954 -0.0821,-0.29632 -0.0233,-0.10092 -0.0816,-0.2653 -0.1295,-0.36529 -0.048,-0.1 -0.0874,-0.22654 -0.0876,-0.28122 -8.5e-4,-0.21074 -0.58353,-1.47581 -0.89126,-1.93501 -0.40388,-0.60271 -1.33228,-1.35045 -1.92662,-1.55171 -0.11515,-0.039 -0.25716,-0.0986 -0.31558,-0.13251 -0.51685,-0.29984 -2.84488,-0.30037 -3.36772,-7.8e-4 -0.0584,0.0335 -0.23634,0.11327 -0.39537,0.17732 -0.15904,0.064 -0.36861,0.17801 -0.46571,0.25325 -0.0971,0.0752 -0.20861,0.13678 -0.24783,0.13678 -0.0392,0 -0.35829,0.31078 -0.70906,0.69062 -0.51545,0.55817 -0.69175,0.80608 -0.91934,1.29269 -0.27842,0.59529 -0.65611,1.7438 -0.65611,1.99514 0,0.12479 0.19877,0.12984 5.11679,0.12984 4.65415,0 5.1132,-0.0102 5.07701,-0.11283 z m 12.588896,11.25753 c -0.52773,-0.0423 -1.33305,-0.17709 -1.39951,-0.23425 -0.0358,-0.0308 -0.2262,-0.10666 -0.42311,-0.16861 -0.3962,-0.12463 -0.9731,-0.43522 -1.394716,-0.75088 -0.81185,-0.60781 -1.51166,-1.83006 -1.86762,-3.26188 -0.0573,-0.23059 -0.0897,-1.81732 -0.11715,-5.73743 l -0.0379,-5.41869 -1.37617,-0.0191 -1.37618,-0.0191 -0.0454,-1.36215 c -0.025,-0.74917 -0.0355,-1.52151 -0.0233,-1.7163 l 0.022,-0.35416 h 1.39951 1.39951 l 0.0325,-2.08956 0.0326,-2.08956 1.83218,-0.0188 1.832176,-0.0188 -0.01,2.07294 -0.01,2.07294 2.42473,0.0186 2.42473,0.0186 v 1.69912 1.69912 h -2.33451 -2.3345 l 0.007,5.22389 0.007,5.2239 0.20912,0.47733 c 0.23557,0.53771 0.64043,1.01804 1.02766,1.21919 0.32909,0.17095 1.1957,0.22866 1.7267,0.11499 0.41196,-0.0882 0.90516,-0.33324 1.32618,-0.6589 0.13963,-0.10801 0.27227,-0.19637 0.29478,-0.19637 0.0225,0 0.20118,0.34265 0.39707,0.76145 0.19588,0.4188 0.37281,0.77738 0.39318,0.79686 0.0204,0.0195 0.0847,0.1674 0.14308,0.32869 0.0583,0.1613 0.16604,0.40036 0.23937,0.53125 0.20639,0.36838 0.17469,0.51667 -0.16361,0.7651 -0.54835,0.40271 -1.11267,0.65078 -2.10187,0.92395 -0.12027,0.0332 -0.47177,0.0799 -0.78112,0.10381 -0.30935,0.0239 -0.67963,0.0531 -0.82283,0.0649 -0.14321,0.0118 -0.39219,0.0109 -0.55329,-0.002 z m 76.121698,-0.0254 c -0.25338,-0.0348 -0.57559,-0.0938 -0.71603,-0.13112 -0.49785,-0.13242 -1.2298,-0.3735 -1.29539,-0.42664 -0.0366,-0.0297 -0.213,-0.11226 -0.39201,-0.18358 -0.179,-0.0713 -0.34011,-0.14852 -0.35801,-0.17157 -0.0179,-0.023 -0.16436,-0.11346 -0.32547,-0.20091 -0.34253,-0.18595 -0.44198,-0.2521 -0.87876,-0.58457 -0.51528,-0.39223 -0.55768,-0.43122 -1.07845,-0.99183 -0.65139,-0.7012 -1.10005,-1.37389 -1.46452,-2.1958 -0.16412,-0.3701 -0.32064,-0.72072 -0.34783,-0.77916 -0.0272,-0.0584 -0.10072,-0.32937 -0.16338,-0.60208 -0.0627,-0.2727 -0.13801,-0.54642 -0.16743,-0.60826 -0.23346,-0.49075 -0.31139,-3.94569 -0.11169,-4.95209 0.16496,-0.83137 0.36079,-1.59048 0.46799,-1.81415 0.0539,-0.11251 0.0982,-0.23273 0.0984,-0.26715 6.5e-4,-0.0923 0.41888,-0.96943 0.6033,-1.26515 0.83366,-1.33678 1.838,-2.325 3.07327,-3.02398 1.57573,-0.89162 2.69671,-1.20047 4.36287,-1.20208 1.41235,-10e-4 2.31025,0.2141 3.50278,0.84057 0.71468,0.37544 1.43335,0.92159 1.84537,1.4024 0.14159,0.16524 0.28763,0.30043 0.32451,0.30043 0.0811,0 0.15293,-3.38423 0.15308,-7.2072 v -2.63852 l 1.44833,-0.0149 c 0.79658,-0.008 1.63519,-0.0162 1.86358,-0.0177 l 0.41525,-0.003 0.008,13.31651 0.008,13.31651 h -1.79006 -1.79007 v -0.425 c 0,-0.23374 0.0212,-0.82342 0.0471,-1.3104 l 0.0471,-0.8854 -0.17952,0.21249 c -0.61968,0.73352 -1.74026,1.58134 -2.38826,1.80694 -0.14321,0.0499 -0.27614,0.11684 -0.29541,0.14885 -0.0193,0.032 -0.22432,0.10868 -0.45566,0.17041 -0.23133,0.0617 -0.4792,0.14126 -0.5508,0.17676 -0.42758,0.21199 -2.573,0.34009 -3.52007,0.21017 z m 2.92915,-3.47221 c 0.24782,-0.039 0.48216,-0.0977 0.52075,-0.1305 0.0386,-0.0328 0.15805,-0.0819 0.26545,-0.10919 0.30659,-0.0778 1.0098,-0.46598 1.36696,-0.75455 0.74407,-0.60118 1.30346,-1.45294 1.60138,-2.4383 0.0471,-0.15583 0.1065,-0.3154 0.13198,-0.35461 0.0255,-0.0392 0.0901,-0.32607 0.14368,-0.63749 0.28558,-1.66088 0.28381,-1.59302 0.0793,-3.04535 -0.18942,-1.34532 -0.76696,-2.60637 -1.57491,-3.43881 -0.7053,-0.72667 -1.40783,-1.10556 -2.75736,-1.48709 -0.28635,-0.081 -1.37916,-0.0815 -1.72497,-9.2e-4 -0.48478,0.11303 -1.30012,0.36862 -1.33363,0.41808 -0.0183,0.027 -0.12121,0.0905 -0.22861,0.14106 -0.84377,0.39705 -1.85886,1.53072 -2.34972,2.62421 -0.4618,1.02875 -0.63862,2.02164 -0.59432,3.3372 0.0915,2.71726 1.49075,4.92189 3.59497,5.6642 0.25061,0.0884 0.60212,0.18489 0.78112,0.2144 0.48288,0.0796 1.56465,0.0784 2.07791,-0.002 z m -156.1051539,3.35084 -1.25305,-0.0219 v -9.49002 -9.49003 h 1.82261 1.82262 v 1.16874 c 0,0.66036 0.0259,1.16874 0.0596,1.16874 0.0328,0 0.20122,-0.1452 0.37429,-0.32265 1.65717,-1.69918 3.77439,-2.4717 6.1040399,-2.2272 0.42915,0.045 0.82529,0.10641 0.88031,0.13636 0.055,0.03 0.31972,0.11066 0.58823,0.17934 0.26851,0.0687 0.51749,0.14816 0.55329,0.17664 0.0358,0.0285 0.19691,0.10752 0.35802,0.17566 0.74902,0.31681 1.73949,1.2407 2.45411,2.28913 0.19251,0.28245 0.36074,0.51354 0.37382,0.51354 0.0131,0 0.10305,-0.14714 0.19989,-0.32696 0.24833,-0.4611 0.956,-1.19739 1.59938,-1.66404 1.00296,-0.72747 2.08154,-1.21372 3.21655,-1.45011 0.83134,-0.17314 2.94885,-0.10287 3.38486,0.11233 0.0716,0.0353 0.33523,0.11737 0.58584,0.1823 0.25061,0.0649 0.48494,0.14066 0.52074,0.16832 0.0358,0.0277 0.16762,0.0925 0.29292,0.14416 0.21211,0.0874 0.89442,0.50388 1.09911,0.67088 0.36981,0.30172 1.23888,1.28953 1.46916,1.6699 0.33368,0.55113 0.63437,1.24426 0.75172,1.73279 0.0468,0.19479 0.10622,0.38603 0.13206,0.42499 0.0786,0.11858 0.18641,0.93837 0.26071,1.98331 0.048,0.67511 0.0558,2.76094 0.0246,6.5343 l -0.0459,5.54264 h -1.84571 -1.8457 l -0.008,-1.22186 c -0.004,-0.67202 -0.002,-2.78371 0.004,-4.69265 0.0135,-4.17551 -0.0872,-6.24721 -0.32022,-6.58742 -0.0267,-0.039 -0.0694,-0.16552 -0.0949,-0.28125 -0.0811,-0.36822 -0.49945,-1.10158 -0.85331,-1.49598 -0.33043,-0.36828 -1.26507,-0.94982 -1.52655,-0.94982 -0.0574,0 -0.13216,-0.0301 -0.16617,-0.0669 -0.18952,-0.20493 -1.92863,-0.21225 -2.34011,-0.01 -0.0716,0.0352 -0.27939,0.11371 -0.46175,0.17444 -1.09168,0.36352 -2.30594,1.74031 -2.69372,3.05432 -0.046,0.15583 -0.10486,0.31521 -0.13083,0.35416 -0.138,0.20706 -0.15926,0.87955 -0.19255,6.0916 l -0.0362,5.6666 h -1.90515 -1.90514 l -0.0151,-5.70202 c -0.0138,-5.22141 -0.0253,-5.75873 -0.13576,-6.37492 -0.18754,-1.04598 -0.62057,-1.94921 -1.16623,-2.43252 -0.32301,-0.28611 -1.11586,-0.75494 -1.2767,-0.75494 -0.0615,0 -0.13994,-0.0307 -0.17439,-0.0682 -0.11274,-0.12268 -1.17085,-0.21261 -1.71173,-0.14548 -0.7620199,0.0946 -1.7743199,0.48313 -2.1572799,0.82805 -0.71177,0.64108 -1.01834,1.04275 -1.37976,1.80777 -0.32851,0.69537 -0.37776,0.8324 -0.49136,1.36735 -0.0918,0.43211 -0.10632,1.20128 -0.11336,5.98535 l -0.008,5.48952 -0.71242,0.003 c -0.39184,0.001 -1.2763,-0.007 -1.96547,-0.0192 z m 96.5466859,-5.36208 c 0.0313,-3.56718 0.025,-5.49564 -0.0187,-5.70667 -0.0363,-0.17531 -0.1008,-0.5578 -0.14342,-0.84999 -0.0426,-0.29218 -0.12905,-0.65874 -0.19206,-0.81457 -0.063,-0.15583 -0.14778,-0.39489 -0.1884,-0.53124 -0.0912,-0.30619 -0.57073,-1.01029 -0.87232,-1.28081 -0.26125,-0.23433 -1.07427,-0.70165 -1.22158,-0.70216 -0.0555,0 -0.12872,-0.0288 -0.16273,-0.0636 -0.1042,-0.10661 -0.72698,-0.22006 -1.20799,-0.22006 -0.49262,0 -1.35196,0.12344 -1.45759,0.20938 -0.0358,0.0291 -0.21887,0.11179 -0.40683,0.18369 -0.18796,0.0719 -0.34174,0.1512 -0.34174,0.17621 0,0.025 -0.0772,0.0838 -0.1716,0.13055 -0.32294,0.16011 -0.94316,0.74462 -1.22868,1.15792 -0.43529,0.63013 -0.78211,1.4771 -0.95054,2.32136 -0.14762,0.73995 -0.14833,0.77075 -0.13777,6.03847 l 0.0106,5.29473 h -1.91804 -1.91803 v -9.49155 -9.49156 h 1.85516 1.85516 l 9.8e-4,1.0802 c 6.5e-4,0.59411 0.0281,1.12684 0.0613,1.18386 0.048,0.0825 0.16088,-0.004 0.55393,-0.425 0.47276,-0.50625 0.6603,-0.65715 1.23898,-0.99689 0.14321,-0.0841 0.27502,-0.17356 0.29292,-0.19884 0.12369,-0.17469 1.6784,-0.74038 2.34337,-0.85265 0.65093,-0.1099 2.13486,-0.0963 2.70137,0.0248 0.50613,0.10817 1.39621,0.38435 1.49715,0.46453 0.0358,0.0284 0.19691,0.10746 0.35801,0.1756 0.783048,0.3312 1.637128,1.16926 2.287388,2.24447 0.18567,0.30701 0.36942,0.55667 0.40833,0.5548 0.0389,-0.002 0.18792,-0.18184 0.33113,-0.39992 0.29298,-0.44618 1.07637,-1.24685 1.6258,-1.66166 0.35194,-0.26572 1.2031,-0.76832 1.30115,-0.76832 0.0262,0 0.13997,-0.0463 0.25279,-0.10278 0.33162,-0.16617 1.1975,-0.39988 1.89754,-0.51217 0.67247,-0.10787 2.00122,-0.0856 2.53864,0.0425 0.55649,0.13266 1.31088,0.36492 1.49715,0.46092 0.10741,0.0554 0.35639,0.18146 0.5533,0.28023 0.63162,0.31681 1.19091,0.75721 1.72811,1.36076 0.50792,0.57064 0.64218,0.77386 0.955,1.4455 0.0816,0.17531 0.16561,0.33469 0.18657,0.35417 0.10366,0.0963 0.45383,1.40692 0.55018,2.05921 0.18617,1.26039 0.21459,2.26846 0.22006,7.80421 l 0.005,5.36556 h -1.91447 -1.91448 l -0.0256,-0.4427 c -0.0141,-0.24349 -0.0329,-2.60275 -0.0419,-5.24281 -0.0188,-5.57038 -0.0738,-6.64005 -0.37324,-7.26461 -0.0499,-0.10412 -0.091,-0.22421 -0.0912,-0.26687 -7.2e-4,-0.14028 -0.49258,-0.9088 -0.75353,-1.17738 -0.35241,-0.36271 -0.80998,-0.66739 -1.32132,-0.87983 -0.70835,-0.29429 -2.49236,-0.31151 -2.99202,-0.0289 -0.0597,0.0337 -0.25969,0.12505 -0.44452,0.2029 -0.49421,0.20816 -1.19492,0.7304 -1.52607,1.13739 -0.34103,0.4191 -0.85358,1.34093 -0.96982,1.7442 -0.0449,0.15583 -0.10554,0.31637 -0.13473,0.35675 -0.14716,0.20368 -0.20113,1.54374 -0.20244,5.02652 -7.8e-4,2.02581 -0.0203,4.39141 -0.0435,5.2569 l -0.0421,1.57361 -1.91289,0.0248 -1.912878,0.0248 0.0473,-5.38792 z m 44.350458,5.3432 -1.86896,-0.0354 -0.0255,-5.63119 c -0.0167,-3.69301 -0.0495,-5.7287 -0.0952,-5.91451 -0.0384,-0.15583 -0.117,-0.49052 -0.17477,-0.74374 -0.28122,-1.23254 -0.94891,-2.16935 -1.89018,-2.65205 -0.28641,-0.14687 -0.5701,-0.29452 -0.63041,-0.3281 -0.47856,-0.26649 -2.44545,-0.26601 -3.01482,7.1e-4 -0.0716,0.0335 -0.23271,0.10186 -0.35802,0.15182 -0.84581,0.33722 -1.94371,1.41948 -2.33324,2.30004 -0.11975,0.27068 -0.24752,0.55321 -0.28394,0.62784 -0.14737,0.30195 -0.33173,1.48357 -0.38774,2.4851 -0.033,0.58934 -0.0409,2.99453 -0.0178,5.40098 l 0.0417,4.33849 h -1.95943 -1.95943 v -9.49471 -9.4947 l 1.88771,0.0106 1.88771,0.0107 v 0.8326 c 0,0.88127 0.0526,1.48987 0.12868,1.48987 0.0252,0 0.16125,-0.11953 0.30226,-0.26562 0.66912,-0.69324 0.87218,-0.86062 1.48932,-1.22769 0.1432,-0.0852 0.27501,-0.1763 0.29292,-0.20249 0.0179,-0.0262 0.13506,-0.0905 0.26037,-0.14278 0.1253,-0.0523 0.3157,-0.138 0.42311,-0.19038 0.23305,-0.11367 0.99021,-0.36035 1.3995,-0.45595 0.87919,-0.20538 2.82321,-0.20304 3.5779,0.004 0.90839,0.24956 1.28922,0.39562 1.88995,0.72483 0.58991,0.32328 0.76839,0.46667 1.30375,1.04746 0.34115,0.3701 0.6998,0.78447 0.79701,0.92082 0.25492,0.35755 0.81115,1.60408 0.90083,2.01873 0.0421,0.19479 0.0986,0.38604 0.1255,0.42499 0.0821,0.11895 0.18655,1.01262 0.25704,2.2001 0.069,1.16174 0.0162,11.7811 -0.0587,11.81 -0.021,0.008 -0.87922,-10e-4 -1.90714,-0.0207 z m -23.4198,-9.50926 3e-5,-9.50926 1.92573,0.0119 c 1.05916,0.007 1.93484,0.0225 1.94596,0.0354 0.0111,0.0129 0.004,4.28675 -0.0153,9.49737 l -0.0355,9.47384 h -1.91046 -1.91045 z m 1.24944,-12.66124 c -0.72707,-0.16825 -1.35579,-0.76901 -1.6381,-1.56527 -0.18884,-0.53265 -0.21091,-1.19038 -0.0523,-1.55943 0.0567,-0.13195 0.14691,-0.35148 0.20048,-0.48783 0.28426,-0.72352 1.40112,-1.48748 2.17461,-1.48748 0.95819,0 1.84047,0.6485 2.26862,1.66748 0.24558,0.58448 0.26044,1.38073 0.0363,1.94498 -0.23106,0.58165 -0.60201,1.02314 -1.07025,1.27381 -0.33968,0.18184 -0.49862,0.2203 -1.02072,0.24698 -0.34011,0.0174 -0.74448,0.002 -0.8986,-0.0332 z m -36.367358,-7.09263 c -0.25062,-0.0342 -0.64368,-0.12581 -0.87346,-0.20354 -0.22979,-0.0777 -0.44203,-0.14131 -0.47166,-0.14131 -0.0296,0 -0.2758,-0.11156 -0.54708,-0.24792 -0.27128,-0.13635 -0.52038,-0.24791 -0.55357,-0.24791 -0.0332,0 -0.0603,-0.026 -0.0603,-0.0577 0,-0.0317 -0.10956,-0.11456 -0.24348,-0.18405 -0.60538,-0.31414 -1.52468,-1.2622 -2.0542,-2.11848 -0.40992,-0.66287 -0.59598,-1.05894 -0.86461,-1.84047 -0.21109,-0.61416 -0.13217,-0.5745 -0.81848,-0.41138 -0.35196,0.0837 -1.62655,0.28357 -2.333286,0.36598 -0.65976,0.0769 -3.69656,0.076 -4.26361,-10e-4 -0.66683,-0.0909 -1.93234,-0.34865 -2.08299,-0.42423 -0.0716,-0.0359 -0.30594,-0.11812 -0.52075,-0.18264 -0.21481,-0.0645 -0.41985,-0.1407 -0.45565,-0.16927 -0.0358,-0.0286 -0.20781,-0.10936 -0.38225,-0.17955 -0.65965,-0.26542 -1.90185,-1.10478 -2.58983,-1.74996 -0.66587,-0.62445 -1.62084,-1.97098 -1.93773,-2.73226 -0.0363,-0.0871 -0.12746,-0.2943 -0.20265,-0.46041 -0.59601,-1.31661 -0.9293,-3.27674 -0.79401,-4.66978 0.18344,-1.88897 0.71897,-3.42087 1.69721,-4.85493 0.70931,-1.03983 1.46903,-1.8084 2.45327,-2.48185 0.21493,-0.14705 1.15941,-0.6377899 1.33288,-0.6925299 0.0895,-0.0282 0.19202,-0.0762 0.22783,-0.10647 0.0709,-0.06 1.16991,-0.3378504 1.69242,-0.4278204 0.17901,-0.0308 0.62498,-0.0584 0.99105,-0.0612 l 0.66558,-0.005 0.13181,-0.31486 c 0.0725,-0.17317 0.13182,-0.33682 0.13182,-0.36366 0,-0.12783 0.57869,-1.26454 0.92164,-1.81035 0.74125,-1.17973 2.2374,-2.72291 3.11415,-3.21206 0.1253,-0.0699 0.24247,-0.15036 0.26037,-0.17879 0.0531,-0.0843 1.395696,-0.82551 1.668706,-0.92127 0.13835,-0.0485 0.28084,-0.11179 0.31664,-0.1406 0.0358,-0.0288 0.18226,-0.0922 0.32547,-0.14079 0.1432,-0.0486 0.34825,-0.13022 0.45565,-0.1813 0.26953,-0.12817 1.05718,-0.36705 1.75752,-0.53302 0.32222,-0.0763 0.67372,-0.1693 0.78112,-0.20654 0.10741,-0.0372 0.79003,-0.14828 1.51694,-0.24676 2.93611,-0.39780004 6.42578,-0.13255 8.89802,0.67633 1.49614,0.48952 3.27019,1.29828 3.87384,1.76601 0.10012,0.0776 0.19879,0.14106 0.21925,0.14106 0.0205,0 0.29422,0.19857 0.60834,0.44127 0.51975,0.40158 2.03675,1.97336 2.31179,2.39527 0.0623,0.0956 0.204208,0.31316 0.315298,0.48345 0.26559,0.40709 0.73493,1.39609 0.90884,1.91513 l 0.13853,0.41342 1.05207,0.0368 c 0.83928,0.0294 1.18373,0.0737 1.70301,0.21922 1.44293,0.4043104 2.81277,1.2632903 3.84051,2.4082303 0.89609,0.99828 1.73305,2.40461 2.01325,3.3828 0.0601,0.20972 0.13552,0.43415 0.16765,0.49874 0.0321,0.0646 0.10504,0.38332 0.16202,0.70832 0.057,0.325 0.13441,0.72231 0.17207,0.88291 0.15248,0.65028 -0.095,3.76726 -0.325,4.09309 -0.03,0.0425 -0.10491,0.25266 -0.1664,0.46693 -0.19528,0.6804 -0.78202,1.84705 -1.31806,2.6208 -0.34064,0.49169 -1.24579,1.45294 -1.71448,1.82074 -1.10979,0.87088 -2.73939,1.59014 -4.14588,1.82987 -0.35117,0.0599 -0.74101,0.14261 -0.86631,0.18391 -0.31894,0.10511 -3.859718,0.16153 -4.654178,0.0742 -1.0114,-0.11124 -2.08117,-0.29305 -2.59303,-0.4407 -0.4333,-0.12499 -0.47213,-0.12618 -0.54773,-0.0169 -0.0448,0.0647 -0.0814,0.15865 -0.0814,0.20879 0,0.0501 -0.0981,0.32295 -0.21801,0.60625 -0.11991,0.28329 -0.23823,0.5629 -0.26293,0.62133 -0.0567,0.1341 -0.14549,0.29682 -0.42674,0.78199 -0.43503,0.75045 -1.82863,2.12212 -2.33072,2.29404 -0.0806,0.0276 -0.14646,0.0799 -0.14646,0.11621 0,0.0363 -0.0305,0.0661 -0.0678,0.0661 -0.0373,0 -0.25238,0.0939 -0.47797,0.20867 -0.22559,0.11478 -0.55391,0.24687 -0.72959,0.29356 -0.17568,0.0467 -0.349,0.10971 -0.38517,0.14006 -0.0362,0.0303 -0.37678,0.10543 -0.75692,0.16685 -0.73944,0.11948 -1.82072,0.13279 -2.56218,0.0315 z m 2.13561,-1.8365 c 1.23292,-0.19753 2.42585,-0.87161 3.36683,-1.90248 0.85305,-0.93453 1.26252,-2.10663 1.26403,-3.61829 9.8e-4,-0.95834 -0.13456,-1.56844 -0.54403,-2.44913 -0.63559,-1.367 -1.72159,-2.32089 -3.22815,-2.83544 -0.55232,-0.18865 -0.65287,-0.20007 -1.75752,-0.19967 -1.06835,7.1e-4 -1.22449,0.0168 -1.7705,0.18629 -0.74424,0.23101 -1.21905,0.50441 -1.82663,1.05179 -1.19209,1.07399 -1.81737,2.43477 -1.88599,4.10449 -0.0362,0.87943 0.0337,1.32514 0.33473,2.13616 0.91301,2.4597 3.45445,3.94167 6.04723,3.52628 z m -10.766776,-5.13658 c 0.515656,-0.0583 0.960466,-0.12133 0.988436,-0.14015 0.028,-0.0188 0.36477,-0.0958 0.74844,-0.1711 0.38366,-0.0753 0.72715,-0.16908 0.76333,-0.20844 0.0362,-0.0394 0.13333,-0.47919 0.21593,-0.97739 0.0826,-0.49821 0.17972,-0.96959 0.21582,-1.0475 0.0361,-0.0779 0.11003,-0.28861 0.16426,-0.46821 0.13996,-0.46345 0.65705,-1.43728 1.07019,-2.01546 0.43379,-0.60709 1.32321,-1.43851 1.90983,-1.7853 0.44181,-0.26118 0.57471,-0.42288 0.28182,-0.34289 -0.25065,0.0685 -0.34433,-0.0106 -0.64989,-0.54863 -0.46328,-0.81569 -0.57968,-1.14147 -0.58621,-1.64073 -0.003,-0.24564 0.0162,-0.47081 0.0432,-0.50037 0.0641,-0.0702 0.35995,0.23373 0.41316,0.42433 0.0228,0.0815 0.0785,0.19598 0.12383,0.25442 0.15993,0.20606 0.87854,1.76879 0.87854,1.91053 0,0.17134 -0.003,0.171 0.30787,0.0404 0.38816,-0.16328 1.74545,-0.52357 2.16874,-0.57568 0.21192,-0.0261 0.41419,-0.0853 0.44948,-0.13157 0.0422,-0.0553 0.0416,-0.21593 -0.002,-0.4691 -0.08,-0.46617 -0.16472,-1.0583 -0.20972,-1.46517 -0.0289,-0.26148 -0.017,-0.30104 0.0907,-0.30104 0.0987,0 0.12399,0.0514 0.12399,0.2518 0,0.13849 0.0622,0.40041 0.13825,0.58204 0.076,0.18162 0.16136,0.53303 0.18961,0.7809 0.0282,0.24788 0.0692,0.47004 0.0909,0.4937 0.0217,0.0237 0.26257,0.0522 0.53518,0.0633 0.28998,0.0119 0.55454,0.0623 0.63759,0.12148 0.15124,0.10783 0.42073,0.2038 1.03625,0.36901 0.21014,0.0564 0.58627,0.20007 0.83585,0.31927 0.24958,0.1192 0.46272,0.20634 0.47365,0.19364 0.0109,-0.0127 0.11308,-0.24621 0.22701,-0.51892 0.11393,-0.2727 0.2758,-0.6552 0.35969,-0.84999 0.36095,-0.83802 0.48821,-1.15008 0.48821,-1.19716 0,-0.0276 0.0573,-0.18711 0.12738,-0.35446 0.0701,-0.16735 0.15841,-0.52419 0.19632,-0.79298 0.0862,-0.61134 0.33856,-1.18271 0.57455,-1.30101 0.3114,-0.15611 0.87606,-0.17552 1.14007,-0.0392 0.59811,0.30885 0.92693,1.08218 0.77157,1.8146 -0.19681,0.92777 -0.64413,1.31388 -1.44955,1.25117 -0.25809,-0.0201 -0.5541,-0.0956 -0.71573,-0.18266 -0.2928,-0.15764 -0.38423,-0.14766 -0.38423,0.0419 0,0.0986 -0.37948,1.03237 -0.58892,1.4491 -0.0778,0.1549 -0.32231,0.8521 -0.32236,0.91934 -2e-5,0.0277 0.28456,0.28109 0.6324,0.5631 0.34784,0.28202 0.78559,0.68482 0.97279,0.89513 0.4272,0.47995 1.00954,1.42635 1.16381,1.89137 0.0646,0.19479 0.13934,0.38615 0.16604,0.42525 0.0878,0.12854 0.38469,1.83181 0.38469,2.20683 0,0.41919 -0.0967,0.36437 0.9764,0.55345 2.12196,0.37391 5.935848,0.42722 7.132988,0.0997 0.14031,-0.0384 0.50055,-0.13138 0.80053,-0.20666 0.29998,-0.0753 0.57826,-0.165 0.61839,-0.1994 0.0401,-0.0344 0.23407,-0.11929 0.43098,-0.18862 0.19691,-0.0693 0.37294,-0.14527 0.39118,-0.16875 0.0182,-0.0235 0.25258,-0.16712 0.52075,-0.31922 0.6082,-0.34495 1.01935,-0.67515 1.56211,-1.25456 0.9658,-1.031 1.53226,-2.10304 1.92318,-3.63967 0.16223,-0.63772 0.1802,-0.82129 0.18021,-1.84164 0,-0.62333 -0.0324,-1.26082 -0.0719,-1.41665 -0.0395,-0.15584 -0.13575,-0.5463 -0.21378,-0.8677 -0.078,-0.3214 -0.16755,-0.58437 -0.19893,-0.58437 -0.0314,0 -0.057,-0.0452 -0.057,-0.10037 0,-0.15086 -0.42671,-0.99593 -0.73134,-1.44837 -0.64518,-0.95822 -1.67016,-1.92493 -2.52333,-2.37987 -0.45903,-0.24477 -1.16351,-0.49923 -1.65557,-0.59799 -0.44778,-0.0899 -1.59299,-0.10204 -1.71435,-0.0182 -0.0455,0.0314 -0.12392,0.29389 -0.17428,0.58328 -0.19279,1.10778 -0.35948,1.76524 -0.51593,2.03492 -0.471,0.81189 -1.180608,0.85204 -1.656168,0.0937 -0.2236,-0.35657 -0.2238,-0.37449 -0.01,-0.89414 0.0642,-0.15583 0.18025,-0.43871 0.25786,-0.62862 0.23596,-0.57742 0.30165,-1.44138 0.17257,-2.26975 -0.0602,-0.3863999 -0.13445,-0.7370203 -0.16496,-0.7791503 -0.0305,-0.0421 -0.0929,-0.2041 -0.13865,-0.35993 -0.15256,-0.51968 -0.58896,-1.29937 -1.09154,-1.9502 -0.37158,-0.48119 -1.18173,-1.23205 -1.81122,-1.67867 -0.0676,-0.048 -0.24013,-0.17231 -0.38334,-0.27629 -0.56232,-0.40827 -2.09057,-1.20604 -2.63628,-1.37618 -0.16111,-0.0502 -0.32424,-0.11674 -0.36252,-0.1478 -0.0383,-0.0311 -0.27262,-0.10625 -0.52075,-0.16706 -0.24813,-0.0608 -0.5244,-0.14196 -0.61394,-0.18032 -0.16303,-0.0698 -1.05325,-0.26043 -2.21311,-0.47381 -0.87123,-0.16028 -4.82418,-0.15864 -5.72823,0.002 -1.07595,0.19163 -2.04824,0.41283 -2.11228,0.48054 -0.034,0.036 -0.11377,0.0654 -0.17723,0.0654 -0.0635,0 -0.43108,0.11532 -0.81692,0.25626 -2.93986,1.07388 -5.007316,2.84161 -6.079186,5.19784 -0.23259,0.51127 -0.3406,0.8652404 -0.44965,1.4735903 -0.14149,0.78928 -0.1419,0.80984 -0.0288,1.44349 0.0742,0.41555 0.21201,0.86028 0.38987,1.25794 0.26317,0.58837 0.2709,0.62418 0.17784,0.82315 -0.31103,0.66505 -0.76936,0.85767 -1.3979,0.58749 -0.37336,-0.16048 -0.70922,-1.07903 -0.87408,-2.39048 l -0.11033,-0.87768 -0.65753,0.0405 c -0.69528,0.0428 -1.52207,0.17489 -1.63106,0.26051 -0.0358,0.0281 -0.21156,0.094 -0.39056,0.14629 -0.35523,0.10387 -0.99114,0.42781 -1.30106,0.66279 -0.46063,0.34923 -1.26936,1.12003 -1.47134,1.40232 -0.1202,0.16798 -0.23546,0.32137 -0.25614,0.34084 -0.097,0.0913 -0.50143,0.80252 -0.76472,1.34461 -0.5021,1.03383 -0.67221,1.71907 -0.71273,2.87089 -0.0624,1.77453 0.20579,3.00666 0.96539,4.43487 0.49425,0.92929 1.4849,2.03324 2.26377,2.52267 0.16523,0.10382 0.31507,0.20983 0.33297,0.23557 0.0517,0.0744 0.80027,0.46397 1.07988,0.56208 0.13999,0.0491 0.28583,0.11612 0.32408,0.1489 0.0852,0.073 0.99335,0.32662 1.65543,0.46233 1.20454,0.24689 3.18932,0.26894 5.071,0.0563 z m 10.579106,-9.20614 c -0.0543,-0.31469 -0.02,-0.35333 0.16704,-0.18851 0.12626,0.11125 0.13687,0.15325 0.072,0.2851 -0.10968,0.22301 -0.18953,0.19075 -0.23906,-0.0966 z m -7.03391,-0.48735 c -0.31414,-0.10695 -0.72617,-0.43016 -0.8142,-0.63868 -0.0338,-0.0801 -0.10373,-0.22534 -0.15536,-0.32273 -0.0581,-0.10965 -0.0912,-0.35241 -0.0868,-0.6375 l 0.007,-0.46041 0.0592,0.45009 c 0.0326,0.24754 0.11597,0.57118 0.18535,0.71918 0.14206,0.30301 0.5577,0.70779 0.72677,0.70779 0.0613,0 0.12805,0.0291 0.14824,0.0647 0.0202,0.0356 0.15067,0.0856 0.28992,0.11122 0.20045,0.0369 0.32581,0.007 0.60177,-0.14128 0.36211,-0.19511 1.02757,-0.89433 1.03811,-1.09076 0.0362,-0.6742 -0.18416,-1.37049 -0.50814,-1.60598 -0.0998,-0.0725 -0.20335,-0.12475 -0.2302,-0.11609 -0.0269,0.009 -0.0488,-0.0111 -0.0488,-0.0439 0,-0.085 -0.46,-0.22371 -0.74194,-0.22371 -0.13126,0 -0.3397,0.046 -0.46323,0.10212 -0.26156,0.11892 -0.7858,0.67162 -0.75975,0.801 0.01,0.0487 -0.0128,0.0885 -0.0501,0.0885 -0.0374,0 -0.0679,0.0531 -0.0679,0.11805 0,0.0649 -0.0182,0.0983 -0.0404,0.0741 -0.16866,-0.18353 0.51059,-1.07723 0.87981,-1.15758 0.11112,-0.0242 0.20205,-0.0719 0.20205,-0.10595 0,-0.0815 0.63268,-0.0806 0.67902,10e-4 0.0197,0.0346 0.11661,0.0849 0.2154,0.11177 0.47412,0.12875 0.90103,0.72618 1.00084,1.40061 0.0745,0.50307 0.0109,0.77059 -0.25341,1.06733 -0.0975,0.10943 -0.25048,0.28109 -0.33999,0.38147 -0.36255,0.4066 -0.91403,0.53595 -1.47327,0.34556 z m 5.57417,-0.53224 c 0,-0.0413 -0.0407,-0.075 -0.0904,-0.075 -0.31333,0 -0.65174,-0.78652 -0.57549,-1.33757 0.045,-0.32543 0.0454,-0.32453 0.0832,0.18752 0.0415,0.56314 0.15123,0.79059 0.5094,1.05595 0.11593,0.0859 0.17797,0.17376 0.14048,0.19897 -0.0369,0.0248 -0.0671,0.0114 -0.0671,-0.0299 z m 0.72596,-0.10943 c 0.0444,-0.0483 0.63424,-0.0674 0.67606,-0.0219 0.019,0.0206 -0.13247,0.0417 -0.33653,0.0469 -0.20408,0.005 -0.35686,-0.006 -0.33953,-0.025 z m 0.84999,-0.13523 c 0.0462,-0.0543 0.10902,-0.0822 0.1397,-0.062 0.0307,0.0203 0.016,0.0642 -0.0326,0.0977 -0.13736,0.0947 -0.20016,0.0738 -0.10715,-0.0357 z m 0.3443,-0.25398 c 0.53056,-0.37972 0.5299,-0.3793 0.3944,-0.25704 -0.0695,0.0627 -0.0992,0.11401 -0.0661,0.11401 0.0332,0 -0.049,0.0637 -0.18261,0.14166 -0.31157,0.18172 -0.39886,0.18254 -0.14573,10e-4 z m 0.62353,-0.68018 c 0.003,-0.0825 0.0186,-0.0993 0.0393,-0.0428 0.0188,0.0511 0.0165,0.11222 -0.005,0.13576 -0.0216,0.0235 -0.037,-0.0183 -0.0342,-0.093 z m 0.0651,-0.35416 c 0.003,-0.0825 0.0186,-0.0993 0.0393,-0.0428 0.0188,0.0511 0.0165,0.11223 -0.005,0.13577 -0.0216,0.0235 -0.037,-0.0183 -0.0342,-0.093 z m -3.22809,-0.86221 c 0.015,-0.20476 0.0594,-0.42788 0.0986,-0.49583 0.0604,-0.1048 0.0649,-0.0984 0.0293,0.0421 -0.023,0.0911 -0.0674,0.31425 -0.0986,0.49583 l -0.0567,0.33015 z m 3.163,0.15388 c 0.003,-0.0825 0.0186,-0.0993 0.0393,-0.0428 0.0188,0.0511 0.0165,0.11222 -0.005,0.13576 -0.0216,0.0235 -0.037,-0.0183 -0.0342,-0.093 z m -0.16969,-0.46349 c -0.0634,-0.31432 -0.61807,-0.88309 -0.92155,-0.94504 -0.12598,-0.0257 -0.21439,-0.0627 -0.19644,-0.0823 0.0643,-0.07 0.56353,0.12216 0.62747,0.24153 0.0359,0.067 0.0662,0.0969 0.0673,0.0663 0.001,-0.0306 0.0869,0.039 0.19076,0.15458 0.18139,0.20191 0.38024,0.68664 0.3121,0.76079 -0.0181,0.0197 -0.0539,-0.0685 -0.0796,-0.19588 z m -2.69956,-0.51727 c 0,-0.0195 0.0586,-0.0695 0.13019,-0.11124 0.0716,-0.0417 0.13018,-0.0599 0.13018,-0.0404 0,0.0195 -0.0586,0.0695 -0.13018,0.11123 -0.0716,0.0417 -0.13019,0.0599 -0.13019,0.0404 z m 0.55329,-0.39844 c 0.14321,-0.0737 0.31896,-0.13387 0.39056,-0.13362 0.0716,2.8e-4 -0.0309,0.0621 -0.22782,0.13749 -0.44646,0.1709 -0.49969,0.16963 -0.16274,-0.004 z m 0.66797,-0.25872 c 0.081,-0.0169 0.19814,-0.0163 0.26038,10e-4 0.0622,0.0177 -0.004,0.0316 -0.14722,0.0308 -0.14321,-7.8e-4 -0.19413,-0.0153 -0.11316,-0.0322 z m -4.80141,-0.49296 c -0.26612,-0.20183 -0.40342,-0.37151 -0.53493,-0.6611 -0.22232,-0.48956 -0.22502,-0.74937 -0.0127,-1.2204199 0.2751,-0.6103804 0.85783,-0.9598104 1.46922,-0.8810204 0.40646,0.0524 0.66259,0.21915 0.88582,0.5767804 0.15485,0.24808 0.17796,0.3541999 0.17796,0.8173899 0,0.47883 -0.0207,0.56621 -0.20554,0.86997 -0.2883,0.47363 -0.6214,0.70572 -1.06378,0.7412 -0.32964,0.0264 -0.38639,0.007 -0.71603,-0.2428 z m 9.64996,-0.0162 c -0.44584,-0.1662 -0.57047,-0.29786 -0.737,-0.77853 -0.3467,-1.00073 0.14799,-1.9140703 1.07137,-1.9780503 0.56567,-0.0392 0.89166,0.0747 1.16851,0.40812 0.40088,0.4828404 0.47915,1.0160703 0.24391,1.6615303 -0.22959,0.62996 -1.0423,0.94956 -1.74679,0.68693 z m -5.90199,-2.7526003 c -0.27168,-0.16485 -0.33769,-0.24822 -0.43433,-0.54856 -0.31062,-0.96532 0.001,-1.80876 0.77095,-2.08408 0.23439,-0.0839 0.33262,-0.0843 0.64366,-0.003 0.20189,0.0527 0.45821,0.16248 0.56961,0.24396 0.27006,0.19752 0.48376,0.63949 0.49022,1.01387 0.007,0.43242 -0.23343,1.20166 -0.40752,1.30136 -0.0773,0.0443 -0.16142,0.11555 -0.18697,0.15841 -0.0261,0.0438 -0.28259,0.0855 -0.58584,0.0952 -0.4833,0.0155 -0.57272,-0.003 -0.85978,-0.17708 z m 7.12264,6.9898103 c 0.0537,-0.0837 0.2225,-0.30371 0.37511,-0.48899 0.2326,-0.28242 0.26246,-0.35043 0.18469,-0.42066 -0.12654,-0.11428 -0.52083,0.0659 -0.62999,0.28782 -0.0444,0.0902 -0.14925,0.22272 -0.23307,0.29447 -0.0982,0.0841 -0.15239,0.20467 -0.15239,0.33918 0,0.18879 0.0171,0.20547 0.179,0.17452 0.0985,-0.0188 0.22295,-0.10268 0.27665,-0.18634 z"
       id="path125"
       sodipodi:nodetypes="cccccscccscssssscsssccccccccsscscscssssccccsccccsccccsssccscccsscsssccscscsssscccccsccsscsccscscccsccccccccssssssscccscccsccccssssscccsssccccccccccccccccccccccccssssssscscssscccccssssssscssscsscssscccccccccsscscssscccscssscssccscssssccccccccssccccccssscsccccscscsccccccscsscscccscccccssccsscccccccssssscssssscsssccccccccccsssccsscssscsscssccsccccccscsscssscsccccccccccssscssscccccccccsssssssscssssccccccccsccccccssssssssccccsssssssccccccsscccsscccccssssccssccccssssssscccsccsssssscscscssssssssscsccsscsscssccsccsssscsscccsccscscccsscccccsscscsscsssscscsssccscsssccssssscssssccssscssssscscsscsccsssscscsscccccscccssccsscccsccccsccccssscccccssccssccsccccscccsccssccccccccscccsscccccccccccccccccccccccccscsccsccscscssccccccccccssccssccssssscsscsccsccsccccssccscc" /></g></svg>
